<svg width="24" height="33" fill="none" xmlns="http://www.w3.org/2000/svg"><path d="M23.925 16.6l-1.703-3.8L23.925 9l-3.61-2.074-.857-4.076-4.14.446L12.23.502 9.14 3.295l-4.14-.444-.856 4.075L.534 8.999l1.702 3.8-1.702 3.8 3.611 2.074.464 2.208-3.855 8.191 4.023.053 2.605 3.066 3.789-8.051 1.059.957 1.058-.957 3.79 8.051 2.604-3.066 4.023-.053-3.855-8.19.464-2.209 3.611-2.073zM12.23 20.27c-4.12 0-7.472-3.351-7.472-7.472 0-4.12 3.352-7.471 7.472-7.471 4.12 0 7.471 3.352 7.471 7.471 0 4.12-3.352 7.472-7.471 7.472z" fill="url(#paint0_linear)"/><defs><linearGradient id="paint0_linear" x1="13.399" y1="-4.486" x2="15.819" y2="51.603" gradientUnits="userSpaceOnUse"><stop stop-color="#FD749B"/><stop offset="1" stop-color="#281AC8"/></linearGradient></defs></svg>