<svg width="32" height="33" fill="none" xmlns="http://www.w3.org/2000/svg"><g clip-path="url(#clip0)"><path d="M13.308 18.203c0 1.536 1.216 2.786 2.712 2.786 1.495 0 2.712-1.25 2.712-2.786 0-1.535-1.217-2.785-2.712-2.785s-2.712 1.25-2.712 2.785z" fill="url(#paint0_linear)"/><path d="M16.02 22.846c-2.991 0-5.424 2.498-5.424 5.57v3.775h10.848v-3.775c0-3.072-2.433-5.57-5.424-5.57z" fill="url(#paint1_linear)"/><path d="M8.788 20.06c0-1.535-1.216-2.785-2.712-2.785-1.495 0-2.712 1.25-2.712 2.785 0 1.536 1.217 2.785 2.712 2.785 1.496 0 2.712-1.249 2.712-2.785z" fill="url(#paint2_linear)"/><path d="M28.675 20.06c0-1.535-1.216-2.785-2.711-2.785-1.496 0-2.712 1.25-2.712 2.785 0 1.536 1.216 2.785 2.712 2.785 1.495 0 2.712-1.249 2.712-2.785z" fill="url(#paint3_linear)"/><path d="M5.172.502l-1.375 3.33-3.205.464 2.312 2.255-.532 3.297 2.8-1.503 2.8 1.503-.531-3.297 2.251-2.255-3.11-.464-1.41-3.33z" fill="url(#paint4_linear)"/><path d="M17.429 3.832l-1.41-3.33-1.374 3.33-3.145.464 2.251 2.255-.531 3.297 2.8-1.503 2.8 1.503-.532-3.297 2.252-2.255-3.111-.464z" fill="url(#paint5_linear)"/><path d="M26.867.502l-1.375 3.33-3.144.464 2.25 2.255-.53 3.297 2.8-1.503 2.8 1.503-.532-3.297 2.312-2.255-3.172-.464-1.409-3.33z" fill="url(#paint6_linear)"/><path d="M25.964 24.702a5.286 5.286 0 00-3.2 1.093c.302.818.488 1.695.488 2.62v3.776h8.196v-1.918c0-3.077-2.489-5.57-5.484-5.57z" fill="url(#paint7_linear)"/><path d="M.592 30.273v1.918h8.196v-3.775c0-.926.186-1.803.488-2.62a5.286 5.286 0 00-3.2-1.094c-2.995 0-5.484 2.494-5.484 5.57z" fill="url(#paint8_linear)"/></g><defs><linearGradient id="paint0_linear" x1="16.291" y1="14.541" x2="16.614" y2="24.409" gradientUnits="userSpaceOnUse"><stop stop-color="#FD749B"/><stop offset="1" stop-color="#281AC8"/></linearGradient><linearGradient id="paint1_linear" x1="16.562" y1="21.374" x2="17.017" y2="37.935" gradientUnits="userSpaceOnUse"><stop stop-color="#FD749B"/><stop offset="1" stop-color="#281AC8"/></linearGradient><linearGradient id="paint2_linear" x1="6.347" y1="16.398" x2="6.67" y2="26.265" gradientUnits="userSpaceOnUse"><stop stop-color="#FD749B"/><stop offset="1" stop-color="#281AC8"/></linearGradient><linearGradient id="paint3_linear" x1="26.235" y1="16.398" x2="26.558" y2="26.265" gradientUnits="userSpaceOnUse"><stop stop-color="#FD749B"/><stop offset="1" stop-color="#281AC8"/></linearGradient><linearGradient id="paint4_linear" x1="5.597" y1="-.969" x2="6.139" y2="15.586" gradientUnits="userSpaceOnUse"><stop stop-color="#FD749B"/><stop offset="1" stop-color="#281AC8"/></linearGradient><linearGradient id="paint5_linear" x1="16.472" y1="-.969" x2="17.017" y2="15.586" gradientUnits="userSpaceOnUse"><stop stop-color="#FD749B"/><stop offset="1" stop-color="#281AC8"/></linearGradient><linearGradient id="paint6_linear" x1="27.353" y1="-.969" x2="27.894" y2="15.586" gradientUnits="userSpaceOnUse"><stop stop-color="#FD749B"/><stop offset="1" stop-color="#281AC8"/></linearGradient><linearGradient id="paint7_linear" x1="27.54" y1="23.523" x2="27.905" y2="36.794" gradientUnits="userSpaceOnUse"><stop stop-color="#FD749B"/><stop offset="1" stop-color="#281AC8"/></linearGradient><linearGradient id="paint8_linear" x1="5.368" y1="23.523" x2="5.733" y2="36.794" gradientUnits="userSpaceOnUse"><stop stop-color="#FD749B"/><stop offset="1" stop-color="#281AC8"/></linearGradient><clipPath id="clip0"><path fill="#fff" transform="translate(.592 .502)" d="M0 0h30.856v31.689H0z"/></clipPath></defs></svg>