<svg width="28" height="33" fill="none" xmlns="http://www.w3.org/2000/svg"><path d="M17.471 22.256H10.81c-5.475 0-9.935 4.46-9.935 9.935h26.562c-.029-5.445-4.49-9.935-9.965-9.935z" fill="url(#paint0_linear)"/><path d="M15.328 17.708c.521 0 1.014.174 1.39.492h2.405a6.825 6.825 0 001.912-4.75c0-3.824-3.1-6.894-6.895-6.894a6.892 6.892 0 00-6.894 6.894 6.907 6.907 0 003.534 6.025c.232-1.014 1.13-1.767 2.173-1.767h2.375z" fill="url(#paint1_linear)"/><path d="M3.944 14.03c.087.723.435 1.39.927 1.882.377.377.87.666 1.42.84-.03-.116-.03-.232-.03-.319v-5.619c0-.116 0-.232.03-.348-.55.145-1.014.435-1.42.84l-.116.116v-.232c0-.55.058-1.1.145-1.622.087-.55.232-1.071.435-1.564a6.885 6.885 0 01.695-1.477c.26-.464.58-.927.927-1.333a.22.22 0 00.058-.115.855.855 0 00.695-.232 8.993 8.993 0 016.373-2.636c2.288 0 4.634.869 6.372 2.636.203.203.464.26.695.232.03.029.03.086.058.115.348.406.667.87.927 1.333.261.463.493.956.695 1.477.174.522.32 1.043.435 1.593.087.522.145 1.072.145 1.623v.231c-.03-.058-.087-.087-.116-.116a3.495 3.495 0 00-1.42-.84c.03.116.03.232.03.348v5.59c0 .116 0 .232-.03.32.145-.03.29-.088.435-.146v1.825c0 .203-.029.406-.058.55a.814.814 0 01-.145.32.63.63 0 01-.231.144c-.116.029-.232.058-.377.058h-5.359c-.174-.29-.463-.492-.84-.492h-2.375a.933.933 0 00-.927.927c.029.52.434.926.956.926h2.375a1 1 0 00.84-.492h5.591c.203 0 .376-.058.55-.116.232-.087.406-.203.58-.377a1.91 1.91 0 00.347-.637c.058-.231.116-.521.116-.84V16l.087-.087c.492-.492.84-1.159.927-1.883.029-.029.058-.029.058-.058a.534.534 0 00.145-.347v-2.405c0-.608-.058-1.216-.145-1.795-.174-.609-.319-1.188-.522-1.767a8.619 8.619 0 00-.782-1.652 8.537 8.537 0 00-1.043-1.477c-.029-.058-.087-.087-.145-.116a.882.882 0 00-.231-.782A10.634 10.634 0 0014.14.502 10.75 10.75 0 006.55 3.63a.882.882 0 00-.232.782c-.057.03-.086.058-.144.116a8.534 8.534 0 00-1.043 1.478c-.29.52-.55 1.071-.782 1.65-.203.58-.377 1.16-.464 1.768-.116.579-.145 1.187-.145 1.796v2.404c0 .145.058.26.145.347.03.03.058.03.058.058z" fill="url(#paint2_linear)"/><defs><linearGradient id="paint0_linear" x1="15.483" y1="20.692" x2="15.693" y2="38.308" gradientUnits="userSpaceOnUse"><stop stop-color="#FD749B"/><stop offset="1" stop-color="#281AC8"/></linearGradient><linearGradient id="paint1_linear" x1="14.83" y1="4.522" x2="15.513" y2="27.411" gradientUnits="userSpaceOnUse"><stop stop-color="#FD749B"/><stop offset="1" stop-color="#281AC8"/></linearGradient><linearGradient id="paint2_linear" x1="15.196" y1="-2.704" x2="16.32" y2="33.372" gradientUnits="userSpaceOnUse"><stop stop-color="#FD749B"/><stop offset="1" stop-color="#281AC8"/></linearGradient></defs></svg>