<svg width="14" height="9" fill="none" xmlns="http://www.w3.org/2000/svg"><path opacity=".8" fill-rule="evenodd" clip-rule="evenodd" d="M4.447 5.391V3.61h4.27C9.014 5.765 8.117 9 4.447 9 1.99 9 0 6.985 0 4.5S1.991 0 4.447 0c1.152 0 2.202.443 2.992 1.171-.612.585-.809.808-.975.998a6.611 6.611 0 01-.29.315c-.458-.383-.956-.657-1.727-.657-1.46 0-2.598 1.197-2.598 2.673s1.139 2.673 2.598 2.673c1.441 0 2.027-.629 2.404-1.784l-2.404.002zm8.012-3.252v1.559H14v1.114h-1.54v1.604h-1.101V4.812H9.774V3.698h1.585v-1.56h1.1z" fill="#fff"/></svg>