<svg width="17" height="705" fill="none" xmlns="http://www.w3.org/2000/svg"><path fill="url(#paint0_linear)" d="M5.508 0h5.508v705H5.508z"/><path d="M8.262 49.938c4.563 0 8.261-1.973 8.261-4.407 0-2.433-3.698-4.406-8.261-4.406C3.699 41.125 0 43.098 0 45.531c0 2.434 3.699 4.407 8.262 4.407z" fill="url(#paint1_linear)"/><path d="M8.262 160.388c4.563 0 8.261-1.973 8.261-4.407 0-2.433-3.698-4.406-8.261-4.406-4.563 0-8.262 1.973-8.262 4.406 0 2.434 3.699 4.407 8.262 4.407z" fill="url(#paint2_linear)"/><path d="M8.262 297.862c4.563 0 8.261-1.972 8.261-4.406 0-2.433-3.698-4.406-8.261-4.406-4.563 0-8.262 1.973-8.262 4.406 0 2.434 3.699 4.406 8.262 4.406z" fill="url(#paint3_linear)"/><path d="M8.262 381.287c4.563 0 8.261-1.972 8.261-4.406 0-2.433-3.698-4.406-8.261-4.406-4.563 0-8.262 1.973-8.262 4.406 0 2.434 3.699 4.406 8.262 4.406z" fill="url(#paint4_linear)"/><path d="M8.262 487.625c4.563 0 8.261-1.973 8.261-4.406 0-2.434-3.698-4.407-8.261-4.407-4.563 0-8.262 1.973-8.262 4.407 0 2.433 3.699 4.406 8.262 4.406z" fill="url(#paint5_linear)"/><path d="M8.262 571.05c4.563 0 8.261-1.972 8.261-4.406 0-2.433-3.698-4.406-8.261-4.406-4.563 0-8.262 1.973-8.262 4.406 0 2.434 3.699 4.406 8.262 4.406z" fill="url(#paint6_linear)"/><defs><linearGradient id="paint0_linear" x1="8.537" y1="-110.972" x2="297.801" y2="-40.014" gradientUnits="userSpaceOnUse"><stop stop-color="#FD749B"/><stop offset="1" stop-color="#281AC8"/></linearGradient><linearGradient id="paint1_linear" x1="9.088" y1="39.738" x2="9.353" y2="55.36" gradientUnits="userSpaceOnUse"><stop stop-color="#FD749B"/><stop offset="1" stop-color="#281AC8"/></linearGradient><linearGradient id="paint2_linear" x1="9.088" y1="150.188" x2="9.353" y2="165.81" gradientUnits="userSpaceOnUse"><stop stop-color="#FD749B"/><stop offset="1" stop-color="#281AC8"/></linearGradient><linearGradient id="paint3_linear" x1="9.088" y1="287.663" x2="9.353" y2="303.285" gradientUnits="userSpaceOnUse"><stop stop-color="#FD749B"/><stop offset="1" stop-color="#281AC8"/></linearGradient><linearGradient id="paint4_linear" x1="9.088" y1="371.088" x2="9.353" y2="386.71" gradientUnits="userSpaceOnUse"><stop stop-color="#FD749B"/><stop offset="1" stop-color="#281AC8"/></linearGradient><linearGradient id="paint5_linear" x1="9.088" y1="477.425" x2="9.353" y2="493.048" gradientUnits="userSpaceOnUse"><stop stop-color="#FD749B"/><stop offset="1" stop-color="#281AC8"/></linearGradient><linearGradient id="paint6_linear" x1="9.088" y1="560.851" x2="9.353" y2="576.473" gradientUnits="userSpaceOnUse"><stop stop-color="#FD749B"/><stop offset="1" stop-color="#281AC8"/></linearGradient></defs></svg>