<svg width="12" height="13" fill="none" xmlns="http://www.w3.org/2000/svg"><path opacity=".8" fill-rule="evenodd" clip-rule="evenodd" d="M10.574 0H1.426C.64 0 0 .69 0 1.542v9.916C0 12.31.639 13 1.426 13h9.148C11.36 13 12 12.31 12 11.458V1.542C12 .69 11.361 0 10.574 0zM8.625 2.031c0-.224.168-.406.375-.406h1.125c.207 0 .375.182.375.406v1.22c0 .223-.168.405-.375.405H9c-.207 0-.375-.182-.375-.406V2.031zm-2.611 1.99c1.274 0 2.308 1.117 2.308 2.494 0 1.378-1.034 2.494-2.308 2.494-1.274 0-2.308-1.116-2.308-2.494 0-1.377 1.034-2.494 2.308-2.494zm4.861 7.354c0 .224-.168.406-.375.406h-9c-.207 0-.375-.182-.375-.406V5.281h1.5c-.195.305-.262.873-.262 1.234 0 2.175 1.638 3.946 3.65 3.946 2.014 0 3.652-1.77 3.652-3.946 0-.36-.048-.92-.29-1.234h1.5v6.094z" fill="#fff"/></svg>