<svg width="145" height="33" fill="none" xmlns="http://www.w3.org/2000/svg"><mask id="a" maskUnits="userSpaceOnUse" x="46.566" y="11.589" width="98" height="18" fill="#000"><path fill="#fff" d="M46.566 11.589h98v18h-98z"/><path d="M47.566 21.094c0-1.404.319-2.663.956-3.777a6.921 6.921 0 012.596-2.643c1.107-.633 2.333-.95 3.676-.95 1.578 0 2.956.379 4.132 1.136 1.177.757 2.036 1.83 2.576 3.22h-2.264c-.402-.867-.983-1.534-1.745-2.002-.747-.468-1.647-.702-2.7-.702-1.01 0-1.917.234-2.72.702-.803.468-1.433 1.135-1.89 2.002-.457.854-.685 1.858-.685 3.014 0 1.142.228 2.147.685 3.014a4.936 4.936 0 001.89 1.982c.803.468 1.71.702 2.72.702 1.053 0 1.953-.227 2.7-.681.762-.468 1.343-1.136 1.745-2.003h2.264c-.54 1.377-1.399 2.443-2.576 3.2-1.176.743-2.554 1.115-4.132 1.115-1.343 0-2.569-.31-3.676-.93a6.962 6.962 0 01-2.596-2.621c-.637-1.115-.956-2.374-.956-3.778zM69.278 28.485c-1.066 0-2.035-.241-2.907-.723a5.267 5.267 0 01-2.035-2.044c-.485-.894-.727-1.926-.727-3.096 0-1.156.249-2.175.747-3.055a5.189 5.189 0 012.077-2.044c.872-.482 1.848-.723 2.928-.723 1.08 0 2.056.241 2.929.723a5.088 5.088 0 012.056 2.023c.512.88.768 1.906.768 3.076 0 1.17-.263 2.202-.789 3.096a5.331 5.331 0 01-2.098 2.044c-.886.482-1.869.723-2.949.723zm0-1.652a4.01 4.01 0 001.911-.475c.595-.316 1.073-.791 1.433-1.424.374-.633.56-1.404.56-2.312 0-.908-.18-1.68-.54-2.312-.36-.633-.83-1.101-1.411-1.404a3.89 3.89 0 00-1.89-.475c-.693 0-1.33.159-1.91.475-.569.303-1.025.77-1.372 1.404-.346.633-.519 1.404-.519 2.312 0 .922.166 1.7.499 2.333.346.633.803 1.108 1.37 1.424.568.303 1.191.454 1.87.454zM78.575 15.149c-.36 0-.665-.124-.914-.372a1.232 1.232 0 01-.374-.908c0-.358.125-.66.374-.908.25-.248.554-.372.914-.372.346 0 .637.124.872.372.25.247.374.55.374.908s-.124.66-.374.908a1.155 1.155 0 01-.872.372zm.914 1.837V28.3h-1.89V16.986h1.89zM88.255 16.78c1.384 0 2.506.42 3.364 1.259.859.826 1.288 2.023 1.288 3.592v6.668h-1.87v-6.4c0-1.128-.283-1.988-.85-2.58-.568-.606-1.344-.908-2.327-.908-.997 0-1.793.31-2.388.929-.581.619-.872 1.52-.872 2.704v6.255h-1.89V16.986h1.89v1.61a3.76 3.76 0 011.516-1.341 4.823 4.823 0 012.139-.475zM103.242 20.888a3.002 3.002 0 011.433.64c.443.344.789.77 1.038 1.28.263.509.395 1.052.395 1.63 0 .73-.187 1.39-.561 1.982-.374.578-.921 1.04-1.64 1.383-.707.33-1.544.496-2.513.496h-5.4V13.91h5.192c.983 0 1.821.165 2.513.496.692.316 1.211.75 1.557 1.3.347.55.52 1.17.52 1.858 0 .854-.236 1.562-.706 2.127-.457.55-1.067.95-1.828 1.197zm-5.358-.764h3.177c.886 0 1.572-.206 2.056-.62.485-.412.727-.983.727-1.713 0-.73-.242-1.3-.727-1.713-.484-.413-1.183-.62-2.097-.62h-3.136v4.666zm3.343 6.627c.942 0 1.676-.22 2.202-.661.526-.44.789-1.053.789-1.837 0-.799-.277-1.425-.831-1.879-.553-.468-1.294-.702-2.222-.702h-3.281v5.079h3.343zM108.024 22.601c0-1.156.236-2.167.707-3.034.47-.881 1.114-1.562 1.931-2.044.831-.482 1.751-.723 2.762-.723.997 0 1.862.214 2.596.64.734.427 1.281.964 1.641 1.61v-2.064h1.91V28.3h-1.91v-2.106c-.374.66-.935 1.211-1.682 1.652-.734.426-1.593.64-2.576.64-1.01 0-1.924-.248-2.741-.744-.817-.495-1.461-1.19-1.931-2.084-.471-.895-.707-1.913-.707-3.056zm9.637.02c0-.852-.173-1.596-.519-2.229a3.566 3.566 0 00-1.413-1.445 3.72 3.72 0 00-1.931-.516c-.706 0-1.35.165-1.932.496-.581.33-1.045.812-1.391 1.445-.346.633-.519 1.376-.519 2.23 0 .866.173 1.623.519 2.27.346.633.81 1.122 1.391 1.466.582.33 1.226.495 1.932.495a3.84 3.84 0 001.931-.495 3.707 3.707 0 001.413-1.466c.346-.647.519-1.397.519-2.25zM126.794 28.485c-.872 0-1.654-.145-2.347-.434-.692-.303-1.239-.715-1.64-1.238a3.335 3.335 0 01-.665-1.838h1.952c.056.564.319 1.026.789 1.383.485.358 1.115.537 1.89.537.72 0 1.288-.158 1.703-.475.416-.316.623-.715.623-1.197 0-.495-.221-.86-.664-1.094-.443-.248-1.129-.489-2.056-.723-.845-.22-1.537-.44-2.077-.66a3.946 3.946 0 01-1.371-1.012c-.374-.454-.561-1.046-.561-1.775 0-.578.174-1.108.52-1.59.346-.481.837-.86 1.474-1.135.637-.29 1.364-.434 2.181-.434 1.26 0 2.277.317 3.053.95.775.633 1.19 1.5 1.246 2.601h-1.89c-.042-.592-.284-1.066-.727-1.424-.429-.358-1.011-.537-1.744-.537-.679 0-1.219.145-1.62.433-.402.29-.603.668-.603 1.136 0 .372.118.681.353.929.25.234.554.426.914.578.374.137.886.296 1.537.475.817.22 1.481.44 1.994.66.512.207.948.523 1.308.95.374.427.568.984.582 1.672 0 .62-.173 1.177-.52 1.672-.346.495-.837.888-1.474 1.177-.623.275-1.343.413-2.16.413zM143.999 22.209c0 .358-.02.736-.062 1.135h-9.096c.069 1.115.45 1.99 1.142 2.622.706.62 1.558.93 2.554.93.817 0 1.496-.187 2.036-.558a3.044 3.044 0 001.163-1.528h2.035a4.914 4.914 0 01-1.828 2.663c-.913.675-2.049 1.012-3.406 1.012-1.079 0-2.049-.241-2.907-.723a5.166 5.166 0 01-1.994-2.044c-.484-.894-.727-1.926-.727-3.096 0-1.17.236-2.195.706-3.076a4.897 4.897 0 011.973-2.023c.859-.482 1.842-.723 2.949-.723 1.08 0 2.036.234 2.866.702a4.785 4.785 0 011.911 1.94c.457.813.685 1.735.685 2.767zm-1.952-.392c0-.716-.159-1.328-.477-1.837a3.003 3.003 0 00-1.309-1.177 3.92 3.92 0 00-1.807-.413c-.955 0-1.772.303-2.45.908-.665.606-1.046 1.445-1.142 2.519h7.185z"/></mask><path d="M47.566 21.094c0-1.404.319-2.663.956-3.777a6.921 6.921 0 012.596-2.643c1.107-.633 2.333-.95 3.676-.95 1.578 0 2.956.379 4.132 1.136 1.177.757 2.036 1.83 2.576 3.22h-2.264c-.402-.867-.983-1.534-1.745-2.002-.747-.468-1.647-.702-2.7-.702-1.01 0-1.917.234-2.72.702-.803.468-1.433 1.135-1.89 2.002-.457.854-.685 1.858-.685 3.014 0 1.142.228 2.147.685 3.014a4.936 4.936 0 001.89 1.982c.803.468 1.71.702 2.72.702 1.053 0 1.953-.227 2.7-.681.762-.468 1.343-1.136 1.745-2.003h2.264c-.54 1.377-1.399 2.443-2.576 3.2-1.176.743-2.554 1.115-4.132 1.115-1.343 0-2.569-.31-3.676-.93a6.962 6.962 0 01-2.596-2.621c-.637-1.115-.956-2.374-.956-3.778zM69.278 28.485c-1.066 0-2.035-.241-2.907-.723a5.267 5.267 0 01-2.035-2.044c-.485-.894-.727-1.926-.727-3.096 0-1.156.249-2.175.747-3.055a5.189 5.189 0 012.077-2.044c.872-.482 1.848-.723 2.928-.723 1.08 0 2.056.241 2.929.723a5.088 5.088 0 012.056 2.023c.512.88.768 1.906.768 3.076 0 1.17-.263 2.202-.789 3.096a5.331 5.331 0 01-2.098 2.044c-.886.482-1.869.723-2.949.723zm0-1.652a4.01 4.01 0 001.911-.475c.595-.316 1.073-.791 1.433-1.424.374-.633.56-1.404.56-2.312 0-.908-.18-1.68-.54-2.312-.36-.633-.83-1.101-1.411-1.404a3.89 3.89 0 00-1.89-.475c-.693 0-1.33.159-1.91.475-.569.303-1.025.77-1.372 1.404-.346.633-.519 1.404-.519 2.312 0 .922.166 1.7.499 2.333.346.633.803 1.108 1.37 1.424.568.303 1.191.454 1.87.454zM78.575 15.149c-.36 0-.665-.124-.914-.372a1.232 1.232 0 01-.374-.908c0-.358.125-.66.374-.908.25-.248.554-.372.914-.372.346 0 .637.124.872.372.25.247.374.55.374.908s-.124.66-.374.908a1.155 1.155 0 01-.872.372zm.914 1.837V28.3h-1.89V16.986h1.89zM88.255 16.78c1.384 0 2.506.42 3.364 1.259.859.826 1.288 2.023 1.288 3.592v6.668h-1.87v-6.4c0-1.128-.283-1.988-.85-2.58-.568-.606-1.344-.908-2.327-.908-.997 0-1.793.31-2.388.929-.581.619-.872 1.52-.872 2.704v6.255h-1.89V16.986h1.89v1.61a3.76 3.76 0 011.516-1.341 4.823 4.823 0 012.139-.475zM103.242 20.888a3.002 3.002 0 011.433.64c.443.344.789.77 1.038 1.28.263.509.395 1.052.395 1.63 0 .73-.187 1.39-.561 1.982-.374.578-.921 1.04-1.64 1.383-.707.33-1.544.496-2.513.496h-5.4V13.91h5.192c.983 0 1.821.165 2.513.496.692.316 1.211.75 1.557 1.3.347.55.52 1.17.52 1.858 0 .854-.236 1.562-.706 2.127-.457.55-1.067.95-1.828 1.197zm-5.358-.764h3.177c.886 0 1.572-.206 2.056-.62.485-.412.727-.983.727-1.713 0-.73-.242-1.3-.727-1.713-.484-.413-1.183-.62-2.097-.62h-3.136v4.666zm3.343 6.627c.942 0 1.676-.22 2.202-.661.526-.44.789-1.053.789-1.837 0-.799-.277-1.425-.831-1.879-.553-.468-1.294-.702-2.222-.702h-3.281v5.079h3.343zM108.024 22.601c0-1.156.236-2.167.707-3.034.47-.881 1.114-1.562 1.931-2.044.831-.482 1.751-.723 2.762-.723.997 0 1.862.214 2.596.64.734.427 1.281.964 1.641 1.61v-2.064h1.91V28.3h-1.91v-2.106c-.374.66-.935 1.211-1.682 1.652-.734.426-1.593.64-2.576.64-1.01 0-1.924-.248-2.741-.744-.817-.495-1.461-1.19-1.931-2.084-.471-.895-.707-1.913-.707-3.056zm9.637.02c0-.852-.173-1.596-.519-2.229a3.566 3.566 0 00-1.413-1.445 3.72 3.72 0 00-1.931-.516c-.706 0-1.35.165-1.932.496-.581.33-1.045.812-1.391 1.445-.346.633-.519 1.376-.519 2.23 0 .866.173 1.623.519 2.27.346.633.81 1.122 1.391 1.466.582.33 1.226.495 1.932.495a3.84 3.84 0 001.931-.495 3.707 3.707 0 001.413-1.466c.346-.647.519-1.397.519-2.25zM126.794 28.485c-.872 0-1.654-.145-2.347-.434-.692-.303-1.239-.715-1.64-1.238a3.335 3.335 0 01-.665-1.838h1.952c.056.564.319 1.026.789 1.383.485.358 1.115.537 1.89.537.72 0 1.288-.158 1.703-.475.416-.316.623-.715.623-1.197 0-.495-.221-.86-.664-1.094-.443-.248-1.129-.489-2.056-.723-.845-.22-1.537-.44-2.077-.66a3.946 3.946 0 01-1.371-1.012c-.374-.454-.561-1.046-.561-1.775 0-.578.174-1.108.52-1.59.346-.481.837-.86 1.474-1.135.637-.29 1.364-.434 2.181-.434 1.26 0 2.277.317 3.053.95.775.633 1.19 1.5 1.246 2.601h-1.89c-.042-.592-.284-1.066-.727-1.424-.429-.358-1.011-.537-1.744-.537-.679 0-1.219.145-1.62.433-.402.29-.603.668-.603 1.136 0 .372.118.681.353.929.25.234.554.426.914.578.374.137.886.296 1.537.475.817.22 1.481.44 1.994.66.512.207.948.523 1.308.95.374.427.568.984.582 1.672 0 .62-.173 1.177-.52 1.672-.346.495-.837.888-1.474 1.177-.623.275-1.343.413-2.16.413zM143.999 22.209c0 .358-.02.736-.062 1.135h-9.096c.069 1.115.45 1.99 1.142 2.622.706.62 1.558.93 2.554.93.817 0 1.496-.187 2.036-.558a3.044 3.044 0 001.163-1.528h2.035a4.914 4.914 0 01-1.828 2.663c-.913.675-2.049 1.012-3.406 1.012-1.079 0-2.049-.241-2.907-.723a5.166 5.166 0 01-1.994-2.044c-.484-.894-.727-1.926-.727-3.096 0-1.17.236-2.195.706-3.076a4.897 4.897 0 011.973-2.023c.859-.482 1.842-.723 2.949-.723 1.08 0 2.036.234 2.866.702a4.785 4.785 0 011.911 1.94c.457.813.685 1.735.685 2.767zm-1.952-.392c0-.716-.159-1.328-.477-1.837a3.003 3.003 0 00-1.309-1.177 3.92 3.92 0 00-1.807-.413c-.955 0-1.772.303-2.45.908-.665.606-1.046 1.445-1.142 2.519h7.185z" fill="#5C5C5C"/><path d="M47.566 21.094c0-1.404.319-2.663.956-3.777a6.921 6.921 0 012.596-2.643c1.107-.633 2.333-.95 3.676-.95 1.578 0 2.956.379 4.132 1.136 1.177.757 2.036 1.83 2.576 3.22h-2.264c-.402-.867-.983-1.534-1.745-2.002-.747-.468-1.647-.702-2.7-.702-1.01 0-1.917.234-2.72.702-.803.468-1.433 1.135-1.89 2.002-.457.854-.685 1.858-.685 3.014 0 1.142.228 2.147.685 3.014a4.936 4.936 0 001.89 1.982c.803.468 1.71.702 2.72.702 1.053 0 1.953-.227 2.7-.681.762-.468 1.343-1.136 1.745-2.003h2.264c-.54 1.377-1.399 2.443-2.576 3.2-1.176.743-2.554 1.115-4.132 1.115-1.343 0-2.569-.31-3.676-.93a6.962 6.962 0 01-2.596-2.621c-.637-1.115-.956-2.374-.956-3.778zM69.278 28.485c-1.066 0-2.035-.241-2.907-.723a5.267 5.267 0 01-2.035-2.044c-.485-.894-.727-1.926-.727-3.096 0-1.156.249-2.175.747-3.055a5.189 5.189 0 012.077-2.044c.872-.482 1.848-.723 2.928-.723 1.08 0 2.056.241 2.929.723a5.088 5.088 0 012.056 2.023c.512.88.768 1.906.768 3.076 0 1.17-.263 2.202-.789 3.096a5.331 5.331 0 01-2.098 2.044c-.886.482-1.869.723-2.949.723zm0-1.652a4.01 4.01 0 001.911-.475c.595-.316 1.073-.791 1.433-1.424.374-.633.56-1.404.56-2.312 0-.908-.18-1.68-.54-2.312-.36-.633-.83-1.101-1.411-1.404a3.89 3.89 0 00-1.89-.475c-.693 0-1.33.159-1.91.475-.569.303-1.025.77-1.372 1.404-.346.633-.519 1.404-.519 2.312 0 .922.166 1.7.499 2.333.346.633.803 1.108 1.37 1.424.568.303 1.191.454 1.87.454zM78.575 15.149c-.36 0-.665-.124-.914-.372a1.232 1.232 0 01-.374-.908c0-.358.125-.66.374-.908.25-.248.554-.372.914-.372.346 0 .637.124.872.372.25.247.374.55.374.908s-.124.66-.374.908a1.155 1.155 0 01-.872.372zm.914 1.837V28.3h-1.89V16.986h1.89zM88.255 16.78c1.384 0 2.506.42 3.364 1.259.859.826 1.288 2.023 1.288 3.592v6.668h-1.87v-6.4c0-1.128-.283-1.988-.85-2.58-.568-.606-1.344-.908-2.327-.908-.997 0-1.793.31-2.388.929-.581.619-.872 1.52-.872 2.704v6.255h-1.89V16.986h1.89v1.61a3.76 3.76 0 011.516-1.341 4.823 4.823 0 012.139-.475zM103.242 20.888a3.002 3.002 0 011.433.64c.443.344.789.77 1.038 1.28.263.509.395 1.052.395 1.63 0 .73-.187 1.39-.561 1.982-.374.578-.921 1.04-1.64 1.383-.707.33-1.544.496-2.513.496h-5.4V13.91h5.192c.983 0 1.821.165 2.513.496.692.316 1.211.75 1.557 1.3.347.55.52 1.17.52 1.858 0 .854-.236 1.562-.706 2.127-.457.55-1.067.95-1.828 1.197zm-5.358-.764h3.177c.886 0 1.572-.206 2.056-.62.485-.412.727-.983.727-1.713 0-.73-.242-1.3-.727-1.713-.484-.413-1.183-.62-2.097-.62h-3.136v4.666zm3.343 6.627c.942 0 1.676-.22 2.202-.661.526-.44.789-1.053.789-1.837 0-.799-.277-1.425-.831-1.879-.553-.468-1.294-.702-2.222-.702h-3.281v5.079h3.343zM108.024 22.601c0-1.156.236-2.167.707-3.034.47-.881 1.114-1.562 1.931-2.044.831-.482 1.751-.723 2.762-.723.997 0 1.862.214 2.596.64.734.427 1.281.964 1.641 1.61v-2.064h1.91V28.3h-1.91v-2.106c-.374.66-.935 1.211-1.682 1.652-.734.426-1.593.64-2.576.64-1.01 0-1.924-.248-2.741-.744-.817-.495-1.461-1.19-1.931-2.084-.471-.895-.707-1.913-.707-3.056zm9.637.02c0-.852-.173-1.596-.519-2.229a3.566 3.566 0 00-1.413-1.445 3.72 3.72 0 00-1.931-.516c-.706 0-1.35.165-1.932.496-.581.33-1.045.812-1.391 1.445-.346.633-.519 1.376-.519 2.23 0 .866.173 1.623.519 2.27.346.633.81 1.122 1.391 1.466.582.33 1.226.495 1.932.495a3.84 3.84 0 001.931-.495 3.707 3.707 0 001.413-1.466c.346-.647.519-1.397.519-2.25zM126.794 28.485c-.872 0-1.654-.145-2.347-.434-.692-.303-1.239-.715-1.64-1.238a3.335 3.335 0 01-.665-1.838h1.952c.056.564.319 1.026.789 1.383.485.358 1.115.537 1.89.537.72 0 1.288-.158 1.703-.475.416-.316.623-.715.623-1.197 0-.495-.221-.86-.664-1.094-.443-.248-1.129-.489-2.056-.723-.845-.22-1.537-.44-2.077-.66a3.946 3.946 0 01-1.371-1.012c-.374-.454-.561-1.046-.561-1.775 0-.578.174-1.108.52-1.59.346-.481.837-.86 1.474-1.135.637-.29 1.364-.434 2.181-.434 1.26 0 2.277.317 3.053.95.775.633 1.19 1.5 1.246 2.601h-1.89c-.042-.592-.284-1.066-.727-1.424-.429-.358-1.011-.537-1.744-.537-.679 0-1.219.145-1.62.433-.402.29-.603.668-.603 1.136 0 .372.118.681.353.929.25.234.554.426.914.578.374.137.886.296 1.537.475.817.22 1.481.44 1.994.66.512.207.948.523 1.308.95.374.427.568.984.582 1.672 0 .62-.173 1.177-.52 1.672-.346.495-.837.888-1.474 1.177-.623.275-1.343.413-2.16.413zM143.999 22.209c0 .358-.02.736-.062 1.135h-9.096c.069 1.115.45 1.99 1.142 2.622.706.62 1.558.93 2.554.93.817 0 1.496-.187 2.036-.558a3.044 3.044 0 001.163-1.528h2.035a4.914 4.914 0 01-1.828 2.663c-.913.675-2.049 1.012-3.406 1.012-1.079 0-2.049-.241-2.907-.723a5.166 5.166 0 01-1.994-2.044c-.484-.894-.727-1.926-.727-3.096 0-1.17.236-2.195.706-3.076a4.897 4.897 0 011.973-2.023c.859-.482 1.842-.723 2.949-.723 1.08 0 2.036.234 2.866.702a4.785 4.785 0 011.911 1.94c.457.813.685 1.735.685 2.767zm-1.952-.392c0-.716-.159-1.328-.477-1.837a3.003 3.003 0 00-1.309-1.177 3.92 3.92 0 00-1.807-.413c-.955 0-1.772.303-2.45.908-.665.606-1.046 1.445-1.142 2.519h7.185z" stroke="#5C5C5C" mask="url(#a)"/><path d="M26.25 30.604h9.273c1.997 0 3.567-1.807 3.567-3.915s-1.57-3.916-3.567-3.916h-2.14c2.854-6.475 1.427-20.78-11.412-20.78-8.559 0-12.838 5.27-12.838 15.962H7.706C4.568 17.955 2 20.815 2 24.279s2.568 6.325 5.706 6.325h18.545z" stroke="url(#paint0_linear)" stroke-width="3" stroke-linecap="round" stroke-linejoin="round"/><path d="M21.847 15.935l-2.228.745-1.084-3.242 2.194-.733c.446-.15.92-.119 1.336.085h0c.416.202.72.55.865.982.144.431.11.892-.101 1.304h0c-.205.403-.551.706-.982.86zm-5.12-1.894l.326-.11 2.834 8.484-.326.108a.78.78 0 00-.495.984.779.779 0 00.987.49l1.92-.642.105.31a.779.779 0 00.987.49.78.78 0 00.495-.984l-.104-.312.13-.043.104.311a.779.779 0 00.987.49.779.779 0 00.494-.985l-.106-.318c1.74-.7 2.675-2.626 2.077-4.417a3.53 3.53 0 00-2.811-2.361 3.22 3.22 0 00.08-2.26c-.455-1.364-1.734-2.216-3.106-2.217l-.16-.478h0a.778.778 0 00-.986-.488.779.779 0 00-.495.983l.104.313-.13.043-.104-.312s0 0 0 0a.779.779 0 00-.987-.489.779.779 0 00-.495.984l.104.312-.283.095v-.001l-.475.158-1.163.389a.779.779 0 00-.495.984.779.779 0 00.987.489zm8.815 5.868h0a2.036 2.036 0 01-1.18 1.01l-2.993 1-1.258-3.766 2.193-.733c.017-.005.034-.011.045-.016l.755-.252a2.038 2.038 0 011.55.1h0c.483.235.838.639 1.006 1.14a1.947 1.947 0 01-.118 1.517z" fill="url(#paint1_linear)" stroke="url(#paint2_linear)"/><defs><linearGradient id="paint0_linear" x1="22.399" y1="-2.512" x2="23.645" y2="48.195" gradientUnits="userSpaceOnUse"><stop stop-color="#FD749B"/><stop offset="1" stop-color="#281AC8"/></linearGradient><linearGradient id="paint1_linear" x1="19.517" y1="8.634" x2="28.061" y2="30.505" gradientUnits="userSpaceOnUse"><stop stop-color="#FD749B"/><stop offset="1" stop-color="#281AC8"/></linearGradient><linearGradient id="paint2_linear" x1="19.517" y1="8.634" x2="28.061" y2="30.505" gradientUnits="userSpaceOnUse"><stop stop-color="#FD749B"/><stop offset="1" stop-color="#281AC8"/></linearGradient></defs></svg>