<svg width="114" height="25" fill="none" xmlns="http://www.w3.org/2000/svg"><mask id="a" maskUnits="userSpaceOnUse" x="36.011" y="8.375" width="78" height="14" fill="#000"><path fill="#fff" d="M36.011 8.375h78v14h-78z"/><path d="M37.011 16.096c0-1.11.252-2.104.755-2.986a5.47 5.47 0 012.052-2.088c.875-.5 1.843-.75 2.905-.75 1.247 0 2.336.299 3.266.897.93.598 1.608 1.447 2.035 2.545h-1.789c-.317-.685-.777-1.213-1.379-1.582-.59-.37-1.302-.555-2.133-.555-.799 0-1.516.185-2.15.555a3.877 3.877 0 00-1.494 1.582c-.36.675-.541 1.468-.541 2.382 0 .903.18 1.697.541 2.382a3.901 3.901 0 001.494 1.566c.634.37 1.351.555 2.15.555.831 0 1.543-.18 2.133-.538.602-.37 1.062-.898 1.38-1.583h1.788c-.427 1.088-1.105 1.93-2.035 2.529-.93.587-2.019.88-3.266.88-1.062 0-2.03-.244-2.905-.733a5.502 5.502 0 01-2.052-2.072c-.503-.881-.755-1.877-.755-2.986zM54.17 21.937c-.842 0-1.608-.19-2.298-.571a4.163 4.163 0 01-1.608-1.615c-.383-.707-.575-1.523-.575-2.448 0-.913.197-1.718.591-2.414a4.101 4.101 0 011.642-1.615c.689-.381 1.46-.571 2.314-.571.853 0 1.625.19 2.314.57a4.02 4.02 0 011.625 1.6c.405.696.607 1.506.607 2.43 0 .925-.208 1.74-.623 2.448a4.214 4.214 0 01-1.658 1.615c-.7.38-1.477.57-2.33.57zm0-1.305c.536 0 1.04-.126 1.51-.376s.848-.625 1.133-1.125c.295-.5.443-1.11.443-1.828s-.142-1.327-.427-1.827c-.284-.5-.657-.87-1.116-1.11a3.074 3.074 0 00-1.494-.374c-.547 0-1.05.125-1.51.375-.448.239-.81.609-1.083 1.11-.273.5-.41 1.108-.41 1.826 0 .73.131 1.344.394 1.844.273.5.634.876 1.083 1.126.449.239.941.359 1.477.359zM61.517 11.398a.985.985 0 01-.722-.294.974.974 0 01-.295-.718c0-.283.098-.522.295-.718a.985.985 0 01.722-.293c.274 0 .504.097.69.293a.974.974 0 01.295.718.974.974 0 01-.295.718.913.913 0 01-.69.294zm.722 1.452v8.94h-1.493v-8.94h1.493zM69.167 12.686c1.094 0 1.98.332 2.66.996.677.652 1.017 1.598 1.017 2.838v5.27h-1.477v-5.058c0-.891-.225-1.571-.673-2.039-.449-.479-1.062-.718-1.839-.718-.787 0-1.417.245-1.887.734-.46.49-.69 1.202-.69 2.138v4.943h-1.493v-8.94h1.494v1.272c.295-.457.694-.81 1.198-1.06a3.812 3.812 0 011.69-.376zM81.011 15.933c.416.065.794.234 1.133.506.35.272.624.609.82 1.011.209.403.313.832.313 1.29 0 .576-.148 1.098-.444 1.565-.295.457-.727.821-1.296 1.093-.558.261-1.22.392-1.986.392h-4.268V10.419h4.104c.776 0 1.439.13 1.986.391.547.25.957.593 1.23 1.028a2.7 2.7 0 01.41 1.468c0 .675-.185 1.235-.557 1.68-.361.436-.843.751-1.445.947zm-4.234-.604h2.511c.7 0 1.242-.163 1.625-.49.383-.325.575-.777.575-1.353 0-.577-.192-1.028-.575-1.354-.383-.327-.935-.49-1.658-.49h-2.478v3.687zm2.642 5.237c.745 0 1.324-.174 1.74-.522.416-.348.624-.832.624-1.452 0-.63-.219-1.125-.657-1.484-.437-.37-1.023-.555-1.756-.555h-2.593v4.013h2.642zM84.791 17.287c0-.913.186-1.713.558-2.398a4.04 4.04 0 011.526-1.615 4.272 4.272 0 012.183-.571c.788 0 1.472.168 2.052.505.58.338 1.012.762 1.297 1.273V12.85h1.51v8.94h-1.51v-1.664c-.296.522-.739.957-1.33 1.305-.58.337-1.258.506-2.035.506-.799 0-1.52-.196-2.166-.588a4.128 4.128 0 01-1.527-1.647c-.372-.707-.558-1.512-.558-2.415zm7.616.016c0-.674-.137-1.261-.41-1.762A2.816 2.816 0 0090.88 14.4a2.942 2.942 0 00-1.526-.407c-.558 0-1.067.13-1.527.391-.46.261-.826.642-1.1 1.142-.273.5-.41 1.088-.41 1.762 0 .685.137 1.284.41 1.795.274.5.64.886 1.1 1.158.46.261.969.392 1.527.392.558 0 1.067-.131 1.526-.392.47-.272.843-.658 1.116-1.158.274-.512.41-1.104.41-1.779zM99.625 21.937c-.69 0-1.308-.114-1.855-.343-.547-.24-.98-.566-1.297-.979a2.635 2.635 0 01-.525-1.452h1.543c.044.446.252.81.624 1.093.383.283.88.424 1.493.424.569 0 1.018-.125 1.346-.375.328-.25.492-.565.492-.946 0-.392-.175-.68-.525-.865-.35-.195-.892-.386-1.625-.57a13.427 13.427 0 01-1.64-.523 3.115 3.115 0 01-1.084-.8c-.296-.358-.443-.826-.443-1.402 0-.457.136-.876.41-1.256.274-.381.662-.68 1.165-.898.504-.228 1.078-.342 1.724-.342.995 0 1.8.25 2.412.75.613.5.941 1.186.985 2.056h-1.493a1.522 1.522 0 00-.575-1.126c-.339-.283-.799-.424-1.379-.424-.536 0-.962.114-1.28.343-.317.228-.476.527-.476.897 0 .293.093.538.28.734.196.185.437.337.722.457.295.108.7.234 1.214.375.646.174 1.171.348 1.576.522.404.163.749.413 1.034.75.295.338.448.778.459 1.322 0 .49-.137.93-.41 1.321-.274.392-.662.702-1.165.93-.493.218-1.062.327-1.707.327zM113.222 16.977c0 .283-.016.582-.049.897h-7.189c.055.881.356 1.572.903 2.072.558.49 1.231.734 2.018.734.646 0 1.182-.146 1.609-.44.438-.304.744-.707.919-1.207h1.608c-.24.859-.722 1.56-1.444 2.104-.722.533-1.619.8-2.692.8-.853 0-1.619-.19-2.297-.571a4.08 4.08 0 01-1.576-1.615c-.383-.707-.574-1.523-.574-2.448 0-.924.186-1.734.558-2.43a3.862 3.862 0 011.559-1.6c.678-.38 1.455-.57 2.33-.57.854 0 1.609.185 2.265.554a3.78 3.78 0 011.51 1.534c.361.642.542 1.37.542 2.186zm-1.543-.31c0-.565-.126-1.05-.377-1.452a2.376 2.376 0 00-1.034-.93 3.1 3.1 0 00-1.428-.326c-.755 0-1.401.24-1.937.718-.525.478-.826 1.142-.903 1.99h5.679z"/></mask><path d="M37.011 16.096c0-1.11.252-2.104.755-2.986a5.47 5.47 0 012.052-2.088c.875-.5 1.843-.75 2.905-.75 1.247 0 2.336.299 3.266.897.93.598 1.608 1.447 2.035 2.545h-1.789c-.317-.685-.777-1.213-1.379-1.582-.59-.37-1.302-.555-2.133-.555-.799 0-1.516.185-2.15.555a3.877 3.877 0 00-1.494 1.582c-.36.675-.541 1.468-.541 2.382 0 .903.18 1.697.541 2.382a3.901 3.901 0 001.494 1.566c.634.37 1.351.555 2.15.555.831 0 1.543-.18 2.133-.538.602-.37 1.062-.898 1.38-1.583h1.788c-.427 1.088-1.105 1.93-2.035 2.529-.93.587-2.019.88-3.266.88-1.062 0-2.03-.244-2.905-.733a5.502 5.502 0 01-2.052-2.072c-.503-.881-.755-1.877-.755-2.986zM54.17 21.937c-.842 0-1.608-.19-2.298-.571a4.163 4.163 0 01-1.608-1.615c-.383-.707-.575-1.523-.575-2.448 0-.913.197-1.718.591-2.414a4.101 4.101 0 011.642-1.615c.689-.381 1.46-.571 2.314-.571.853 0 1.625.19 2.314.57a4.02 4.02 0 011.625 1.6c.405.696.607 1.506.607 2.43 0 .925-.208 1.74-.623 2.448a4.214 4.214 0 01-1.658 1.615c-.7.38-1.477.57-2.33.57zm0-1.305c.536 0 1.04-.126 1.51-.376s.848-.625 1.133-1.125c.295-.5.443-1.11.443-1.828s-.142-1.327-.427-1.827c-.284-.5-.657-.87-1.116-1.11a3.074 3.074 0 00-1.494-.374c-.547 0-1.05.125-1.51.375-.448.239-.81.609-1.083 1.11-.273.5-.41 1.108-.41 1.826 0 .73.131 1.344.394 1.844.273.5.634.876 1.083 1.126.449.239.941.359 1.477.359zM61.517 11.398a.985.985 0 01-.722-.294.974.974 0 01-.295-.718c0-.283.098-.522.295-.718a.985.985 0 01.722-.293c.274 0 .504.097.69.293a.974.974 0 01.295.718.974.974 0 01-.295.718.913.913 0 01-.69.294zm.722 1.452v8.94h-1.493v-8.94h1.493zM69.167 12.686c1.094 0 1.98.332 2.66.996.677.652 1.017 1.598 1.017 2.838v5.27h-1.477v-5.058c0-.891-.225-1.571-.673-2.039-.449-.479-1.062-.718-1.839-.718-.787 0-1.417.245-1.887.734-.46.49-.69 1.202-.69 2.138v4.943h-1.493v-8.94h1.494v1.272c.295-.457.694-.81 1.198-1.06a3.812 3.812 0 011.69-.376zM81.011 15.933c.416.065.794.234 1.133.506.35.272.624.609.82 1.011.209.403.313.832.313 1.29 0 .576-.148 1.098-.444 1.565-.295.457-.727.821-1.296 1.093-.558.261-1.22.392-1.986.392h-4.268V10.419h4.104c.776 0 1.439.13 1.986.391.547.25.957.593 1.23 1.028a2.7 2.7 0 01.41 1.468c0 .675-.185 1.235-.557 1.68-.361.436-.843.751-1.445.947zm-4.234-.604h2.511c.7 0 1.242-.163 1.625-.49.383-.325.575-.777.575-1.353 0-.577-.192-1.028-.575-1.354-.383-.327-.935-.49-1.658-.49h-2.478v3.687zm2.642 5.237c.745 0 1.324-.174 1.74-.522.416-.348.624-.832.624-1.452 0-.63-.219-1.125-.657-1.484-.437-.37-1.023-.555-1.756-.555h-2.593v4.013h2.642zM84.791 17.287c0-.913.186-1.713.558-2.398a4.04 4.04 0 011.526-1.615 4.272 4.272 0 012.183-.571c.788 0 1.472.168 2.052.505.58.338 1.012.762 1.297 1.273V12.85h1.51v8.94h-1.51v-1.664c-.296.522-.739.957-1.33 1.305-.58.337-1.258.506-2.035.506-.799 0-1.52-.196-2.166-.588a4.128 4.128 0 01-1.527-1.647c-.372-.707-.558-1.512-.558-2.415zm7.616.016c0-.674-.137-1.261-.41-1.762A2.816 2.816 0 0090.88 14.4a2.942 2.942 0 00-1.526-.407c-.558 0-1.067.13-1.527.391-.46.261-.826.642-1.1 1.142-.273.5-.41 1.088-.41 1.762 0 .685.137 1.284.41 1.795.274.5.64.886 1.1 1.158.46.261.969.392 1.527.392.558 0 1.067-.131 1.526-.392.47-.272.843-.658 1.116-1.158.274-.512.41-1.104.41-1.779zM99.625 21.937c-.69 0-1.308-.114-1.855-.343-.547-.24-.98-.566-1.297-.979a2.635 2.635 0 01-.525-1.452h1.543c.044.446.252.81.624 1.093.383.283.88.424 1.493.424.569 0 1.018-.125 1.346-.375.328-.25.492-.565.492-.946 0-.392-.175-.68-.525-.865-.35-.195-.892-.386-1.625-.57a13.427 13.427 0 01-1.64-.523 3.115 3.115 0 01-1.084-.8c-.296-.358-.443-.826-.443-1.402 0-.457.136-.876.41-1.256.274-.381.662-.68 1.165-.898.504-.228 1.078-.342 1.724-.342.995 0 1.8.25 2.412.75.613.5.941 1.186.985 2.056h-1.493a1.522 1.522 0 00-.575-1.126c-.339-.283-.799-.424-1.379-.424-.536 0-.962.114-1.28.343-.317.228-.476.527-.476.897 0 .293.093.538.28.734.196.185.437.337.722.457.295.108.7.234 1.214.375.646.174 1.171.348 1.576.522.404.163.749.413 1.034.75.295.338.448.778.459 1.322 0 .49-.137.93-.41 1.321-.274.392-.662.702-1.165.93-.493.218-1.062.327-1.707.327zM113.222 16.977c0 .283-.016.582-.049.897h-7.189c.055.881.356 1.572.903 2.072.558.49 1.231.734 2.018.734.646 0 1.182-.146 1.609-.44.438-.304.744-.707.919-1.207h1.608c-.24.859-.722 1.56-1.444 2.104-.722.533-1.619.8-2.692.8-.853 0-1.619-.19-2.297-.571a4.08 4.08 0 01-1.576-1.615c-.383-.707-.574-1.523-.574-2.448 0-.924.186-1.734.558-2.43a3.862 3.862 0 011.559-1.6c.678-.38 1.455-.57 2.33-.57.854 0 1.609.185 2.265.554a3.78 3.78 0 011.51 1.534c.361.642.542 1.37.542 2.186zm-1.543-.31c0-.565-.126-1.05-.377-1.452a2.376 2.376 0 00-1.034-.93 3.1 3.1 0 00-1.428-.326c-.755 0-1.401.24-1.937.718-.525.478-.826 1.142-.903 1.99h5.679z" fill="#fff"/><path d="M37.011 16.096c0-1.11.252-2.104.755-2.986a5.47 5.47 0 012.052-2.088c.875-.5 1.843-.75 2.905-.75 1.247 0 2.336.299 3.266.897.93.598 1.608 1.447 2.035 2.545h-1.789c-.317-.685-.777-1.213-1.379-1.582-.59-.37-1.302-.555-2.133-.555-.799 0-1.516.185-2.15.555a3.877 3.877 0 00-1.494 1.582c-.36.675-.541 1.468-.541 2.382 0 .903.18 1.697.541 2.382a3.901 3.901 0 001.494 1.566c.634.37 1.351.555 2.15.555.831 0 1.543-.18 2.133-.538.602-.37 1.062-.898 1.38-1.583h1.788c-.427 1.088-1.105 1.93-2.035 2.529-.93.587-2.019.88-3.266.88-1.062 0-2.03-.244-2.905-.733a5.502 5.502 0 01-2.052-2.072c-.503-.881-.755-1.877-.755-2.986zM54.17 21.937c-.842 0-1.608-.19-2.298-.571a4.163 4.163 0 01-1.608-1.615c-.383-.707-.575-1.523-.575-2.448 0-.913.197-1.718.591-2.414a4.101 4.101 0 011.642-1.615c.689-.381 1.46-.571 2.314-.571.853 0 1.625.19 2.314.57a4.02 4.02 0 011.625 1.6c.405.696.607 1.506.607 2.43 0 .925-.208 1.74-.623 2.448a4.214 4.214 0 01-1.658 1.615c-.7.38-1.477.57-2.33.57zm0-1.305c.536 0 1.04-.126 1.51-.376s.848-.625 1.133-1.125c.295-.5.443-1.11.443-1.828s-.142-1.327-.427-1.827c-.284-.5-.657-.87-1.116-1.11a3.074 3.074 0 00-1.494-.374c-.547 0-1.05.125-1.51.375-.448.239-.81.609-1.083 1.11-.273.5-.41 1.108-.41 1.826 0 .73.131 1.344.394 1.844.273.5.634.876 1.083 1.126.449.239.941.359 1.477.359zM61.517 11.398a.985.985 0 01-.722-.294.974.974 0 01-.295-.718c0-.283.098-.522.295-.718a.985.985 0 01.722-.293c.274 0 .504.097.69.293a.974.974 0 01.295.718.974.974 0 01-.295.718.913.913 0 01-.69.294zm.722 1.452v8.94h-1.493v-8.94h1.493zM69.167 12.686c1.094 0 1.98.332 2.66.996.677.652 1.017 1.598 1.017 2.838v5.27h-1.477v-5.058c0-.891-.225-1.571-.673-2.039-.449-.479-1.062-.718-1.839-.718-.787 0-1.417.245-1.887.734-.46.49-.69 1.202-.69 2.138v4.943h-1.493v-8.94h1.494v1.272c.295-.457.694-.81 1.198-1.06a3.812 3.812 0 011.69-.376zM81.011 15.933c.416.065.794.234 1.133.506.35.272.624.609.82 1.011.209.403.313.832.313 1.29 0 .576-.148 1.098-.444 1.565-.295.457-.727.821-1.296 1.093-.558.261-1.22.392-1.986.392h-4.268V10.419h4.104c.776 0 1.439.13 1.986.391.547.25.957.593 1.23 1.028a2.7 2.7 0 01.41 1.468c0 .675-.185 1.235-.557 1.68-.361.436-.843.751-1.445.947zm-4.234-.604h2.511c.7 0 1.242-.163 1.625-.49.383-.325.575-.777.575-1.353 0-.577-.192-1.028-.575-1.354-.383-.327-.935-.49-1.658-.49h-2.478v3.687zm2.642 5.237c.745 0 1.324-.174 1.74-.522.416-.348.624-.832.624-1.452 0-.63-.219-1.125-.657-1.484-.437-.37-1.023-.555-1.756-.555h-2.593v4.013h2.642zM84.791 17.287c0-.913.186-1.713.558-2.398a4.04 4.04 0 011.526-1.615 4.272 4.272 0 012.183-.571c.788 0 1.472.168 2.052.505.58.338 1.012.762 1.297 1.273V12.85h1.51v8.94h-1.51v-1.664c-.296.522-.739.957-1.33 1.305-.58.337-1.258.506-2.035.506-.799 0-1.52-.196-2.166-.588a4.128 4.128 0 01-1.527-1.647c-.372-.707-.558-1.512-.558-2.415zm7.616.016c0-.674-.137-1.261-.41-1.762A2.816 2.816 0 0090.88 14.4a2.942 2.942 0 00-1.526-.407c-.558 0-1.067.13-1.527.391-.46.261-.826.642-1.1 1.142-.273.5-.41 1.088-.41 1.762 0 .685.137 1.284.41 1.795.274.5.64.886 1.1 1.158.46.261.969.392 1.527.392.558 0 1.067-.131 1.526-.392.47-.272.843-.658 1.116-1.158.274-.512.41-1.104.41-1.779zM99.625 21.937c-.69 0-1.308-.114-1.855-.343-.547-.24-.98-.566-1.297-.979a2.635 2.635 0 01-.525-1.452h1.543c.044.446.252.81.624 1.093.383.283.88.424 1.493.424.569 0 1.018-.125 1.346-.375.328-.25.492-.565.492-.946 0-.392-.175-.68-.525-.865-.35-.195-.892-.386-1.625-.57a13.427 13.427 0 01-1.64-.523 3.115 3.115 0 01-1.084-.8c-.296-.358-.443-.826-.443-1.402 0-.457.136-.876.41-1.256.274-.381.662-.68 1.165-.898.504-.228 1.078-.342 1.724-.342.995 0 1.8.25 2.412.75.613.5.941 1.186.985 2.056h-1.493a1.522 1.522 0 00-.575-1.126c-.339-.283-.799-.424-1.379-.424-.536 0-.962.114-1.28.343-.317.228-.476.527-.476.897 0 .293.093.538.28.734.196.185.437.337.722.457.295.108.7.234 1.214.375.646.174 1.171.348 1.576.522.404.163.749.413 1.034.75.295.338.448.778.459 1.322 0 .49-.137.93-.41 1.321-.274.392-.662.702-1.165.93-.493.218-1.062.327-1.707.327zM113.222 16.977c0 .283-.016.582-.049.897h-7.189c.055.881.356 1.572.903 2.072.558.49 1.231.734 2.018.734.646 0 1.182-.146 1.609-.44.438-.304.744-.707.919-1.207h1.608c-.24.859-.722 1.56-1.444 2.104-.722.533-1.619.8-2.692.8-.853 0-1.619-.19-2.297-.571a4.08 4.08 0 01-1.576-1.615c-.383-.707-.574-1.523-.574-2.448 0-.924.186-1.734.558-2.43a3.862 3.862 0 011.559-1.6c.678-.38 1.455-.57 2.33-.57.854 0 1.609.185 2.265.554a3.78 3.78 0 011.51 1.534c.361.642.542 1.37.542 2.186zm-1.543-.31c0-.565-.126-1.05-.377-1.452a2.376 2.376 0 00-1.034-.93 3.1 3.1 0 00-1.428-.326c-.755 0-1.401.24-1.937.718-.525.478-.826 1.142-.903 1.99h5.679z" stroke="#fff" stroke-width=".4" mask="url(#a)"/><path d="M20.165 23.612h7.328c1.579 0 2.819-1.428 2.819-3.094s-1.24-3.095-2.819-3.095h-1.69C28.056 12.306 26.93 1 16.782 1 10.02 1 6.637 5.165 6.637 13.615H5.51c-2.48 0-4.51 2.261-4.51 4.998 0 2.738 2.03 4.999 4.51 4.999H20.166z" stroke="#fff" stroke-width="2" stroke-linecap="round" stroke-linejoin="round"/><path d="M16.733 12.157l-1.9.635-.948-2.838 1.87-.625c.39-.13.803-.103 1.166.074h0c.364.177.631.482.758.86.126.379.096.784-.088 1.144h0a1.53 1.53 0 01-.858.75zm-4.14-1.773l.396-.132 2.331 6.98-.395.132a.47.47 0 00-.3.594.47.47 0 00.597.294l1.655-.553.129.384a.47.47 0 00.596.294.47.47 0 00.3-.593l-.129-.384.378-.126.128.383a.47.47 0 00.597.295.47.47 0 00.299-.594l-.128-.384c1.388-.482 2.147-1.975 1.685-3.358a2.65 2.65 0 00-2.298-1.792 2.405 2.405 0 00.14-1.86 2.44 2.44 0 00-2.42-1.652l-.16-.478h0a.47.47 0 00-.597-.294.47.47 0 00-.3.593l.129.385-.378.126-.128-.384s0 0 0 0a.47.47 0 00-.597-.295.47.47 0 00-.3.594l.13.384-.5.167h0l-.237.079-.92.307a.47.47 0 00-.3.594.47.47 0 00.597.294zm7.142 4.842h0c-.21.412-.57.721-1.016.87l-2.503.836-1.086-3.251 1.87-.626.034-.011.599-.2a1.756 1.756 0 011.335.085h0c.416.203.724.553.868.986.145.434.11.898-.1 1.31z" fill="#fff" stroke="#fff" stroke-width=".5"/></svg>