<svg width="13" height="11" fill="none" xmlns="http://www.w3.org/2000/svg"><path opacity=".8" fill-rule="evenodd" clip-rule="evenodd" d="M12.641.203a5.196 5.196 0 01-1.694.673A2.613 2.613 0 009 0C7.528 0 6.334 1.243 6.334 2.777c0 .218.023.429.069.632C4.186 3.293 2.22 2.19.905.507c-.23.411-.361.889-.361 1.398 0 .962.47 1.813 1.187 2.31A2.589 2.589 0 01.52 3.87v.034c0 1.346.92 2.47 2.141 2.723a2.561 2.561 0 01-1.205.049c.34 1.103 1.324 1.906 2.492 1.927A5.218 5.218 0 010 9.753 7.344 7.344 0 004.089 11c4.906 0 7.588-4.23 7.588-7.9 0-.122-.002-.242-.007-.36.521-.392.974-.88 1.33-1.438-.478.22-.992.37-1.531.437.55-.343.973-.887 1.172-1.536z" fill="#fff"/></svg>